<?xml version="1.0" standalone="no"?>
<!DOCTYPE svg PUBLIC "-//W3C//DTD SVG 20010904//EN"
 "http://www.w3.org/TR/2001/REC-SVG-20010904/DTD/svg10.dtd">
<svg version="1.0" xmlns="http://www.w3.org/2000/svg"
 width="156.000000pt" height="156.000000pt" viewBox="0 0 156.000000 156.000000"
 preserveAspectRatio="xMidYMid meet">

<g transform="translate(0.000000,156.000000) scale(0.100000,-0.100000)"
fill="#FF0000" stroke="none">
<path d="M580 1406 c-237 -71 -404 -241 -469 -476 -39 -138 -24 -200 47 -200
39 0 62 31 62 85 1 93 79 253 165 334 203 192 517 201 727 22 l42 -36 -64 -6
c-45 -4 -67 -12 -77 -25 -17 -24 -17 -55 3 -82 15 -21 20 -22 200 -22 l184 0
0 180 c0 167 -1 181 -20 200 -26 26 -64 25 -90 -2 -16 -18 -20 -35 -20 -95 l0
-74 -72 61 c-79 66 -155 106 -264 139 -100 30 -251 28 -354 -3z"/>
<path d="M480 760 l0 -180 280 0 280 0 0 180 0 180 -280 0 -280 0 0 -180z
m528 -2 l-3 -143 -242 -3 -243 -2 0 145 0 145 245 0 246 0 -3 -142z"/>
<path d="M560 760 l0 -100 44 0 c59 0 76 23 76 102 0 73 -21 98 -80 98 l-40 0
0 -100z m78 -3 c3 -52 1 -57 -18 -57 -18 0 -20 6 -20 61 0 52 2 60 18 57 13
-2 18 -15 20 -61z"/>
<path d="M738 849 c-15 -8 -18 -24 -18 -87 0 -86 8 -102 52 -102 21 0 28 5 28
20 0 13 -7 20 -20 20 -13 0 -20 7 -20 20 0 13 7 20 20 20 13 0 20 7 20 20 0
13 -7 20 -20 20 -13 0 -20 7 -20 20 0 13 7 20 20 20 13 0 20 7 20 20 0 22 -32
27 -62 9z"/>
<path d="M846 823 c4 -21 14 -65 23 -98 13 -47 20 -60 36 -60 16 0 22 13 35
70 9 39 19 82 23 98 6 23 4 27 -12 27 -20 0 -24 -8 -36 -69 -8 -40 -21 -27
-30 31 -5 29 -11 38 -26 38 -18 0 -19 -5 -13 -37z"/>
<path d="M1320 768 c-13 -14 -20 -35 -20 -61 0 -48 -42 -174 -76 -230 -37 -59
-110 -133 -170 -173 -87 -56 -148 -75 -260 -81 -116 -6 -181 5 -268 47 -61 29
-146 93 -146 111 0 5 24 9 53 9 63 0 87 19 87 68 0 56 -22 62 -222 62 l-178 0
0 -178 c0 -203 6 -222 65 -222 49 0 65 28 65 112 0 38 4 68 8 68 5 0 19 -12
33 -26 36 -40 162 -120 225 -144 257 -96 534 -34 725 160 56 58 86 99 117 161
67 137 93 287 54 322 -26 24 -67 21 -92 -5z"/>
</g>
</svg>
